<svg width="25" height="24" viewBox="0 0 25 24" fill="none" xmlns="http://www.w3.org/2000/svg">
<g id="Frame 12">
<path id="search" fill-rule="evenodd" clip-rule="evenodd" d="M22.0859 9.5C22.0859 13.0899 19.1757 16 15.5859 16C14.1711 16 12.8619 15.548 11.7947 14.7805C11.746 14.9046 11.6714 15.021 11.5711 15.1213L5.20711 21.4853C4.81658 21.8758 4.18342 21.8758 3.79289 21.4853C3.40237 21.0948 3.40237 20.4616 3.79289 20.0711L10.1569 13.7071C10.2472 13.6167 10.3506 13.5472 10.461 13.4987C9.59937 12.3959 9.08588 11.0079 9.08588 9.5C9.08588 5.91015 11.996 3 15.5859 3C19.1757 3 22.0859 5.91015 22.0859 9.5ZM20.0859 9.5C20.0859 11.9853 18.0712 14 15.5859 14C13.1006 14 11.0859 11.9853 11.0859 9.5C11.0859 7.01472 13.1006 5 15.5859 5C18.0712 5 20.0859 7.01472 20.0859 9.5Z" fill="black" fill-opacity="0.6"/>
</g>
</svg>
