<svg width="24" height="25" viewBox="0 0 24 25" fill="none" xmlns="http://www.w3.org/2000/svg">
<g id="Frame 13">
<path id="menu" fill-rule="evenodd" clip-rule="evenodd" d="M7.5 13C7.5 14.3807 6.38071 15.5 5 15.5C3.61929 15.5 2.5 14.3807 2.5 13C2.5 11.6193 3.61929 10.5 5 10.5C6.38071 10.5 7.5 11.6193 7.5 13ZM14.5 13C14.5 14.3807 13.3807 15.5 12 15.5C10.6193 15.5 9.5 14.3807 9.5 13C9.5 11.6193 10.6193 10.5 12 10.5C13.3807 10.5 14.5 11.6193 14.5 13ZM19 15.5C20.3807 15.5 21.5 14.3807 21.5 13C21.5 11.6193 20.3807 10.5 19 10.5C17.6193 10.5 16.5 11.6193 16.5 13C16.5 14.3807 17.6193 15.5 19 15.5Z" fill="black" fill-opacity="0.6"/>
</g>
</svg>
