<svg width="16" height="16" viewBox="0 0 16 16" fill="none" xmlns="http://www.w3.org/2000/svg">
<g id="vercleIcon/16">
<path id="Union" fill-rule="evenodd" clip-rule="evenodd" d="M4.66193 1.24827C3.94449 0.834057 3.02711 1.07987 2.61289 1.79731C2.19868 2.51475 2.44449 3.43213 3.16193 3.84635L10.4413 8.04909L3.16686 12.249C2.44942 12.6632 2.2036 13.5806 2.61782 14.298C3.03203 15.0155 3.94942 15.2613 4.66686 14.8471L14.1683 9.3614C14.2844 9.29721 14.3928 9.2172 14.4898 9.12233C14.6342 8.98148 14.7461 8.81505 14.8225 8.63465C15.0501 8.09952 14.9432 7.48812 14.5718 7.06263C14.4543 6.9276 14.3156 6.81741 14.1638 6.73419L4.66193 1.24827Z" fill="black"/>
</g>
</svg>
